<svg width="57" height="56" viewBox="0 0 57 56" fill="none" xmlns="http://www.w3.org/2000/svg">
<g clip-path="url(#clip0_5388_2262)">
<path d="M28.5938 0C12.9064 0 0.1875 12.3555 0.1875 27.5947C0.1875 42.8339 12.9064 55.1895 28.5938 55.1895C44.2812 55.1895 57.0002 42.8339 57.0002 27.5947C57.0002 12.3555 44.2812 0 28.5938 0ZM35.6954 18.3965C35.6954 18.3965 33.5271 18.3965 32.4997 18.3965C31.2262 18.3965 30.961 18.9047 30.961 20.1855C30.961 21.2525 30.961 22.9956 30.961 22.9956H35.6954L35.2007 27.5947H30.961V43.6917H23.8594V27.5947H19.1251V22.9956H23.8594C23.8594 22.9956 23.8594 21.2318 23.8594 17.6882C23.8594 13.6203 26.0633 11.4978 31.0297 11.4978C31.8416 11.4978 35.6954 11.4978 35.6954 11.4978V18.3965Z" fill="#D1DCE5"/>
</g>
<defs>
<clipPath id="clip0_5388_2262">
<rect width="56.8127" height="55.1895" fill="white" transform="translate(0.1875)"/>
</clipPath>
</defs>
</svg>
