<svg width="56" height="56" viewBox="0 0 56 56" fill="none" xmlns="http://www.w3.org/2000/svg">
<path d="M27.7955 22.0959C24.7407 22.0959 22.2969 24.5398 22.2969 27.5945C22.2969 30.6493 24.7407 33.0931 27.7955 33.0931C30.8502 33.0931 33.2941 30.6493 33.2941 27.5945C33.2941 24.5398 30.8502 22.0959 27.7955 22.0959Z" fill="#D1DCE5"/>
<path d="M34.7186 13.2371H20.8703C16.8991 13.2371 13.6406 16.4955 13.6406 20.4667V34.315C13.6406 38.2862 16.8991 41.5446 20.8703 41.5446H34.7186C38.6898 41.5446 41.9482 38.2862 41.9482 34.315V20.4667C41.8464 16.4955 38.6898 13.2371 34.7186 13.2371ZM27.7944 36.1479C23.1104 36.1479 19.241 32.2785 19.241 27.5945C19.241 22.9105 23.1104 19.0411 27.7944 19.0411C32.4784 19.0411 36.3478 22.9105 36.3478 27.5945C36.4496 32.3803 32.5802 36.1479 27.7944 36.1479ZM36.9587 20.4667C35.8386 20.4667 34.9222 19.5503 34.9222 18.4302C34.9222 17.3101 35.8386 16.3937 36.9587 16.3937C38.0788 16.3937 38.9952 17.3101 38.9952 18.4302C38.9952 19.5503 38.0788 20.4667 36.9587 20.4667Z" fill="#D1DCE5"/>
<path d="M27.5948 0C12.4227 0 0 12.4227 0 27.5948C0 42.8687 12.4227 55.1896 27.5948 55.1896C42.7668 55.1896 55.1896 42.7668 55.1896 27.5948C55.1896 12.4227 42.8687 0 27.5948 0ZM45.1088 34.3153C45.1088 40.1194 40.4248 44.8034 34.6208 44.8034H20.8743C15.0702 44.8034 10.3862 40.1194 10.3862 34.3153V20.467C10.3862 14.6629 15.0702 9.97893 20.8743 9.97893H34.7226C40.5267 9.97893 45.2107 14.6629 45.2107 20.467V34.3153H45.1088Z" fill="#D1DCE5"/>
</svg>
