<svg id="Warstwa_1" data-name="Warstwa 1" xmlns="http://www.w3.org/2000/svg" xmlns:xlink="http://www.w3.org/1999/xlink" viewBox="0 0 427.18 438.52"><defs><style>.cls-1{fill:none;}.cls-2{fill:#e58004;}.cls-3{clip-path:url(#clip-path);}.cls-4{fill:#f3c8a1;}</style><clipPath id="clip-path"><path class="cls-1" d="M214.13,211.78c3.82,1,7.49,2.25,7.49,2.25,8.86,3,16.87,5.72,24.22,11.93,2.45,2.07,16.36,14.26,17.26,32.48,1,20.63-14.92,43.53-39,47.47s-48.86-12.56-53.3-36.76a45.75,45.75,0,0,1,26.47-50.08c-11.66.25-21.36-.13-28.32-.56-17.33-1.07-34.35-2.22-54.5-8.71A163.39,163.39,0,0,1,92,200.72C67.35,249.3,70.47,307,100.6,350.66c43.68,63.28,119.85,61.78,129.74,61.42,60.87-2.26,99.11-40.42,106.9-48.55,8.95-9.34,35.47-39.35,42.16-86.7,1.2-8.49,8.83-69.79-34.28-122.14-28-34-64.64-46.54-75.25-50.09-37-12.38-76.17-17-76.17-17C171,85,150.36,84.84,141.19,71c-8.67-13.12-8.84-24.17-8.84-24.17-.11-7,2-11.8-1.06-15.87-.63-.84-3.75-4.68-14.32-4.57-22.5.24-40.91,18-45.16,22.32A86.37,86.37,0,0,0,48.4,90.94C41,124.57,57,151.72,64.2,161.9A93.22,93.22,0,0,0,90.44,187C128.79,210.72,186,204.41,214.13,211.78Z"/></clipPath></defs><path class="cls-2" d="M214.13,211.78c3.82,1,7.49,2.25,7.49,2.25,8.86,3,16.87,5.72,24.22,11.93,2.45,2.07,16.36,14.26,17.26,32.48,1,20.63-14.92,43.53-39,47.47s-48.86-12.56-53.3-36.76a45.75,45.75,0,0,1,26.47-50.08c-11.66.25-21.36-.13-28.32-.56-17.33-1.07-34.35-2.22-54.5-8.71A163.39,163.39,0,0,1,92,200.72C67.35,249.3,70.47,307,100.6,350.66c43.68,63.28,119.85,61.78,129.74,61.42,60.87-2.26,99.11-40.42,106.9-48.55,8.95-9.34,35.47-39.35,42.16-86.7,1.2-8.49,8.83-69.79-34.28-122.14-28-34-64.64-46.54-75.25-50.09-37-12.38-76.17-17-76.17-17C171,85,150.36,84.84,141.19,71c-8.67-13.12-8.84-24.17-8.84-24.17-.11-7,2-11.8-1.06-15.87-.63-.84-3.75-4.68-14.32-4.57-22.5.24-40.91,18-45.16,22.32A86.37,86.37,0,0,0,48.4,90.94C41,124.57,57,151.72,64.2,161.9A93.22,93.22,0,0,0,90.44,187C128.79,210.72,186,204.41,214.13,211.78Z"/><g class="cls-3"><path class="cls-4" d="M81.64,75.37c-7.46,26.13,9,53.15,27.46,65.93,32.19,22.3,60.25-5.85,132.46,3,24.13,2.95,58.73,7,88.26,31.12,46.87,38.25,49.92,94.52,50.25,103.25C395,125.19,370.17,70.77,338,55,283.93,28.43,190.5,101.48,150.1,62c-9.11-8.9-12.38-20.46-13.74-28.67C109.45,37,87.86,53.54,81.64,75.37Z"/></g><path class="cls-2" d="M117.8,30.83c1.92,0,7.76,0,10,2.85,1.07,1.37,1,3,.62,7.17a49.73,49.73,0,0,0-.1,11.18h0c.32,2.35,2.1,12,10.46,22.74,10,12.77,25.3,14.34,46.48,16.51,5.38.55,10.95,1.12,17,1.93a414.7,414.7,0,0,1,56.44,12.51c35.08,10.43,63,27.87,83,51.84C383.29,207.41,376,269.31,375,276.21a154.23,154.23,0,0,1-41,84.24c-12.94,13.5-48.95,45.14-103.85,47.17-.89,0-2.34.07-4.27.07-18.89,0-83.47-4.29-121.63-59.56C75.9,307,72.11,253.2,94.07,206.65a168.71,168.71,0,0,0,19,7.4c21.1,6.79,39.42,7.92,55.59,8.91,4.48.28,9,.47,13.56.57A50,50,0,0,0,166.38,270c4.29,23.38,26,41,50.43,41a49.46,49.46,0,0,0,8-.64c27.79-4.55,43.83-30.58,42.77-52.1-.95-19.13-14.66-32.14-18.84-35.67-8-6.75-16.58-9.66-25.66-12.74-.16-.05-3.86-1.32-7.8-2.35-9.81-2.57-22.42-3.5-37-4.58-27.12-2-60.87-4.48-85.44-19.69a89.11,89.11,0,0,1-24.94-23.86c-6.85-9.73-22-35.78-15.09-67.43,3.29-15,10.76-28.47,22.22-40.08,4.81-4.87,22-20.77,42-21h.78m0-4.46H117c-22.5.24-40.91,18-45.16,22.32A86.37,86.37,0,0,0,48.4,90.94C41,124.57,57,151.72,64.2,161.9A93.22,93.22,0,0,0,90.44,187c38.35,23.74,95.59,17.43,123.69,24.8,3.82,1,7.48,2.25,7.48,2.25,8.87,3,16.88,5.72,24.23,11.93,2.45,2.07,16.36,14.26,17.26,32.48,1,20.63-14.92,43.53-39,47.47a44.52,44.52,0,0,1-7.26.59c-21.72,0-42-15.57-46-37.35a45.76,45.76,0,0,1,26.46-50.08c-2.53.06-5,.08-7.32.08-8.42,0-15.54-.31-21-.64-17.33-1.07-34.35-2.22-54.5-8.71A163.39,163.39,0,0,1,92,200.72C67.35,249.3,70.47,307,100.6,350.66c39.59,57.35,105.86,61.49,125.3,61.49,2,0,3.51,0,4.44-.07,60.87-2.26,99.11-40.42,106.9-48.55,8.95-9.34,35.47-39.35,42.16-86.7,1-6.78,8.9-70.38-34.28-122.14-31-37.15-72.78-49.58-85.15-53.26a416.82,416.82,0,0,0-57.13-12.66c-29.55-3.92-49.42-2.53-60.55-16.76-8.38-10.7-9.58-20.53-9.58-20.53-1.18-9.61,2.41-15.6-1.42-20.54-3.23-4.17-9.4-4.57-13.49-4.57Z"/></svg>